<svg xmlns="http://www.w3.org/2000/svg" viewBox="0 0 198.4252 45.35433"><title>Pedro Martin Logo</title><g id="Capa_1" data-name="Capa 1"><path class="cls-1" d="M14.17323,30.89172V28.88756l.8165-.07417q.71733-.07425.71749-.69283V16.61527l-1.41016-.07417V14.43794h7.07631a6.51842,6.51842,0,0,1,4.3174,1.29892,4.80183,4.80183,0,0,1,1.54641,3.89707,4.952,4.952,0,0,1-1.75649,4.0454A7.08506,7.08506,0,0,1,20.829,25.12674H18.72588v3.58765l2.37533.07417v2.10316Zm4.55265-8.165h1.78133q3.61232,0,3.61265-2.94449a2.5866,2.5866,0,0,0-.92791-2.36291,5.75671,5.75671,0,0,0-2.95691-.58141H18.72588Z"/><path class="cls-1" d="M40.57364,30.89172H28.82085V28.88756l.81649-.07417q.71733-.07425.7175-.69283V16.61527l-1.41016-.07417V14.43794h11.332V18.5451l-2.52366.17333V17.7286a1.06074,1.06074,0,0,0-.12383-.59383q-.12384-.17267-.59367-.17317h-3.662v4.231H39.089v2.52382H33.3735v4.62682H37.357c.297,0,.48628-.06192.56917-.18558A1.1302,1.1302,0,0,0,38.05,27.5514v-1.237l2.52366.17317Z"/><path class="cls-1" d="M42.4043,30.89172V28.88756l.81649-.07417q.71733-.07425.7175-.69283V16.61527l-1.41016-.07417V14.43794h6.77931A7.93746,7.93746,0,0,1,54.986,16.36777a7.50028,7.50028,0,0,1,2.04108,5.71565,12.26191,12.26191,0,0,1-.6185,4.0949,6.72632,6.72632,0,0,1-1.68232,2.73407,7.477,7.477,0,0,1-5.295,1.97933ZM46.957,16.83794V28.5164h2.52366a3.95477,3.95477,0,0,0,3.31565-1.534,7.16442,7.16442,0,0,0,1.18766-4.45365q0-5.69056-4.82481-5.69081Z"/><path class="cls-1" d="M58.80874,30.89172V28.88756l.8165-.07417q.71733-.07425.7175-.69283V16.61527l-1.4105-.07417V14.43794h6.75481a7.69079,7.69079,0,0,1,4.40432,1.06383,3.943,3.943,0,0,1,1.534,3.48883,4.27374,4.27374,0,0,1-.87858,2.77115,5.175,5.175,0,0,1-2.09074,1.5835,2.56245,2.56245,0,0,1,1.4105,1.50932l1.78132,3.88449,1.4105.0495v2.10316H67.14688V28.88756l.7175-.07417q.56883-.07425.56916-.44549a.80153.80153,0,0,0-.099-.34634l-1.16283-2.47415a2.23961,2.23961,0,0,0-.60641-.87842,1.52264,1.52264,0,0,0-.95242-.25975H63.36106v4.30515l1.60849.07417v2.10316Zm4.55232-8.83314h2.15282q3.0435,0,3.04316-2.72165,0-1.55875-.80408-2.02883a5.35222,5.35222,0,0,0-2.58541-.47016H63.36106Z"/><path class="cls-1" d="M81.55925,14.14094a6.50821,6.50821,0,0,1,4.9114,2.0785q1.97932,2.07823,1.97966,6.34639,0,4.268-1.96725,6.45781a6.79308,6.79308,0,0,1-5.31948,2.18975,6.62138,6.62138,0,0,1-5.25807-2.17733q-1.90532-2.1769-1.90516-6.33414a10.99692,10.99692,0,0,1,.66817-3.99591,6.578,6.578,0,0,1,1.75683-2.65991A7.60541,7.60541,0,0,1,81.55925,14.14094Zm-4.46607,8.43731q0,6.13656,4.256,6.13614a3.25581,3.25581,0,0,0,3.19149-1.88049,8.89473,8.89473,0,0,0,.84133-4.05782,10.31465,10.31465,0,0,0-.74233-3.95882,3.44722,3.44722,0,0,0-1.27424-1.55866,3.92269,3.92269,0,0,0-2.21425-.56916,3.35215,3.35215,0,0,0-2.33841.89083,4.62842,4.62842,0,0,0-1.34841,2.15249A10.08548,10.08548,0,0,0,77.09318,22.57825Z"/><path class="cls-1" d="M100.52426,14.43794l4.20632,11.18363h.04933l4.23082-11.18363h4.89932V16.4421l-.8165.07417a.73375.73375,0,0,0-.71749.866l.61849,11.33212,1.534.07417v2.10316H108.5654V28.88756l.891-.07417q.668-.04932.64333-.64333l-.47016-8.73413h-.04967l-3.81032,9.8723h-2.35049l-3.761-9.7733h-.04933l-.495,9.17946,1.60849.07417v2.10316H94.88295V28.88756l.89066-.07417a.63533.63533,0,0,0,.6185-.66816l.66816-11.50529-1.50949-.09884V14.43794Z"/><path class="cls-1" d="M116.70587,28.12056l3.98349-11.53012-1.55883-.14834V14.43794h5.66615L129.844,28.71439h.02484l1.41016.07417v2.10316h-6.38365V28.88756l.94033-.07417a.98254.98254,0,0,0,.56917-.198q.1485-.1485.02483-.54434l-.51983-1.534h-5.78965l-.74233,2.17732,1.48467.07417v2.10316h-5.71548V28.88756l.81649-.07417A.88349.88349,0,0,0,116.70587,28.12056ZM123.015,17.2091l-2.30116,7.05164h4.60232l-2.227-7.05164Z"/><path class="cls-1" d="M132.19415,30.89172V28.88756l.8165-.07417q.71733-.07425.71749-.69283V16.61527L132.318,16.5411V14.43794h6.75481a7.68887,7.68887,0,0,1,4.404,1.06383,3.943,3.943,0,0,1,1.534,3.48883,4.27363,4.27363,0,0,1-.87824,2.77115,5.175,5.175,0,0,1-2.09075,1.5835,2.56339,2.56339,0,0,1,1.4105,1.50932l1.78133,3.88449,1.41016.0495v2.10316h-6.11115V28.88756l.7175-.07417q.56883-.07425.56883-.44549a.80525.80525,0,0,0-.09866-.34634l-1.16317-2.47415a2.23586,2.23586,0,0,0-.60608-.87842,1.52366,1.52366,0,0,0-.95275-.25975H136.7468v4.30515l1.6085.07417v2.10316Zm4.55265-8.83314h2.15283q3.043,0,3.04315-2.72165,0-1.55875-.80408-2.02883a5.35371,5.35371,0,0,0-2.58574-.47016H136.7468Z"/><path class="cls-1" d="M151.54275,28.12056V16.88744h-1.93q-.56934,0-.56917.767v1.16283l-2.52366-.17316V14.43794h12.94046V18.6441l-2.524.17316V17.65443a1.064,1.064,0,0,0-.1235-.59383q-.12434-.17267-.594-.17316h-1.68233v11.827l1.9545.07417v2.10316h-6.97731V28.88756l1.31149-.07417Q151.54258,28.73914,151.54275,28.12056Z"/><path class="cls-1" d="M162.15688,27.9969V16.61527l-1.41016-.07417V14.43794h5.98764V16.4421l-.81649.07417a.71284.71284,0,0,0-.7175.79183V28.71439l1.41016.07417v2.10316h-5.98765V28.88756l.8165-.07417a.97534.97534,0,0,0,.54433-.21041A.81823.81823,0,0,0,162.15688,27.9969Z"/><path class="cls-1" d="M168.21869,30.89172V28.88756l.891-.07417a.61972.61972,0,0,0,.643-.69283V16.61527l-1.41016-.07417V14.43794h4.45365l7.00215,11.3568h.04933V16.61527l-1.633-.07417V14.43794H184.252V16.4421l-.89066.07417q-.594.04983-.594.767V30.89172h-2.89483l-7.15047-11.53h-.04967v9.35263l1.6085.07417v2.10316Z"/></g></svg>
